<?xml version="1.0" standalone="no"?>
<!DOCTYPE svg PUBLIC "-//W3C//DTD SVG 20010904//EN"
 "http://www.w3.org/TR/2001/REC-SVG-20010904/DTD/svg10.dtd">
<svg version="1.0" xmlns="http://www.w3.org/2000/svg"
 width="234.000000pt" height="234.000000pt" viewBox="0 0 234.000000 234.000000"
 preserveAspectRatio="xMidYMid meet">
<metadata>
Created by potrace 1.14, written by Peter Selinger 2001-2017
</metadata>
<g transform="translate(0.000000,234.000000) scale(0.100000,-0.100000)"
fill="#000000" stroke="none">
<path d="M577 1664 c-1 -2 -23 -4 -47 -5 -152 -9 -312 -115 -387 -256 l-28
-53 -57 0 -58 0 0 -66 c0 -39 4 -63 10 -59 5 3 23 -7 40 -22 26 -23 33 -38 36
-78 29 -313 344 -521 643 -424 158 51 268 167 321 338 47 152 108 206 168 151
29 -27 45 -60 70 -146 29 -96 64 -155 133 -224 186 -187 495 -187 687 1 87 85
133 184 146 315 5 45 21 70 56 84 29 12 30 15 30 74 l0 62 -57 -1 -57 0 -29
50 c-95 163 -250 257 -425 258 -64 0 -81 -2 -147 -18 -104 -26 -227 -123 -288
-227 l-38 -65 -132 -1 -132 0 -18 38 c-46 99 -156 200 -260 238 -47 18 -173
43 -180 36z m102 -105 c63 -14 117 -45 172 -96 171 -160 172 -423 4 -582 -84
-80 -168 -113 -285 -113 -158 0 -304 100 -364 248 -63 157 -31 317 88 437 103
104 235 141 385 106z m1191 1 c138 -38 248 -150 285 -291 65 -244 -131 -499
-384 -499 -149 0 -267 63 -346 185 -45 70 -62 128 -62 214 -2 156 82 293 220
361 96 47 189 57 287 30z"/>
<path d="M497 1499 c-91 -21 -181 -94 -224 -181 -56 -111 -43 -248 32 -350 54
-74 66 -76 106 -20 18 26 37 52 41 57 5 6 31 40 59 78 l50 67 -28 1 c-15 1
-44 3 -63 4 -19 1 -45 3 -57 4 -18 1 1 24 99 119 66 64 138 134 160 156 29 28
36 41 27 46 -8 5 -50 -17 -113 -59 -195 -131 -199 -132 -88 -26 56 54 102 102
102 106 0 11 -53 10 -103 -2z"/>
<path d="M701 1347 c-66 -83 -70 -92 -51 -99 20 -7 62 -16 88 -17 19 -1 13
-13 -33 -63 -135 -145 -266 -299 -260 -307 6 -11 15 -8 110 34 l60 27 -37 -39
c-21 -21 -38 -42 -38 -46 0 -4 27 -5 59 -3 71 5 153 40 208 89 99 90 134 261
77 383 -21 45 -79 120 -99 127 -8 4 -40 -28 -84 -86z"/>
<path d="M1685 1500 c-85 -21 -165 -78 -212 -152 -77 -124 -56 -309 48 -411
l39 -39 90 123 c50 67 90 125 90 129 0 3 -15 6 -32 6 -18 1 -55 2 -83 3 l-50
2 164 158 c107 103 160 160 152 165 -12 8 -45 -11 -211 -122 l-95 -64 103 102
c56 55 102 103 102 105 0 7 -71 4 -105 -5z"/>
<path d="M1886 1349 c-37 -50 -66 -92 -64 -94 2 -2 29 -10 61 -17 l56 -13 -30
-35 c-17 -19 -83 -94 -147 -165 -160 -178 -154 -169 -117 -163 17 3 56 17 88
32 54 24 67 18 25 -12 -10 -7 -22 -21 -28 -31 -8 -17 -5 -18 45 -16 113 6 204
57 265 148 67 99 77 222 27 330 -24 52 -85 127 -103 127 -5 -1 -40 -42 -78
-91z"/>
</g>
</svg>
